<?xml version="1.0" encoding="UTF-8" standalone="no"?>
<svg
   xmlns:dc="http://purl.org/dc/elements/1.1/"
   xmlns:cc="http://creativecommons.org/ns#"
   xmlns:rdf="http://www.w3.org/1999/02/22-rdf-syntax-ns#"
   xmlns:svg="http://www.w3.org/2000/svg"
   xmlns="http://www.w3.org/2000/svg"
   xmlns:sodipodi="http://sodipodi.sourceforge.net/DTD/sodipodi-0.dtd"
   xmlns:inkscape="http://www.inkscape.org/namespaces/inkscape"
   id="svg4776"
   sodipodi:docname="contact.svg"
   viewBox="0 0 300 300"
   version="1.1"
   inkscape:version="1.0.2 (e86c870879, 2021-01-15)"
   width="100%"
   height="100%">
  <defs
     id="defs16" />
  <sodipodi:namedview
     id="base"
     bordercolor="#666666"
     inkscape:pageshadow="2"
     inkscape:window-y="52"
     pagecolor="#ffffff"
     inkscape:window-height="999"
     inkscape:window-maximized="1"
     inkscape:zoom="2.8"
     inkscape:window-x="0"
     showgrid="false"
     borderopacity="1.0"
     inkscape:current-layer="layer1"
     inkscape:cx="50.277579"
     inkscape:cy="140.69903"
     inkscape:window-width="1920"
     inkscape:pageopacity="0.63921569"
     inkscape:document-units="px"
     inkscape:document-rotation="0"
     inkscape:pagecheckerboard="true" />
  <g
     id="layer1"
     inkscape:label="Layer 1"
     inkscape:groupmode="layer"
     transform="translate(-231.54,-375.82)">
    <path
       style="fill:#bababa;stroke:none;stroke-width:0.357143;fill-opacity:1"
       d="M 140.09901,292.97574 C 93.433375,289.29048 53.026325,264.86981 28.222564,225.36136 26.797664,223.09172 24.122275,218.26153 22.277255,214.6276 14.32557,198.96605 9.7246225,183.58484 7.5345343,165.34189 6.6675525,158.12012 6.6681361,141.8409 7.5356353,134.6276 11.625594,100.61938 25.826541,71.384482 49.62415,47.981736 60.872811,36.919722 71.884614,29.005377 85.634721,22.100418 111.95284,8.8841171 141.3893,4.0692766 170.45615,8.2264115 c 28.42404,4.0652005 55.0368,16.7583025 76.79867,36.6295455 22.16171,20.236354 38.03213,48.991761 43.56112,78.927823 1.85891,10.06483 2.11049,13.12343 2.12581,25.84382 0.0151,12.53916 -0.17828,15.1919 -1.79632,24.64286 -7.51803,43.91263 -35.41326,82.15719 -74.88581,102.66896 -15.46594,8.03683 -30.63916,12.78502 -48.65414,15.22546 -4.07118,0.55151 -7.81628,0.75373 -15.54219,0.83923 -5.59821,0.062 -10.98214,0.0492 -11.96428,-0.0284 z m 93.67494,-80.0991 c 1.67535,-0.85917 2.74734,-2.00509 3.45087,-3.68887 0.4912,-1.17561 0.55276,-7.76873 0.55276,-59.20303 0,-51.434297 -0.0616,-58.027411 -0.55276,-59.203022 -0.73738,-1.764807 -1.82546,-2.895439 -3.55438,-3.693389 -1.37565,-0.6349 -4.47987,-0.659618 -83.78312,-0.667172 l -82.354538,-0.0078 -1.574032,0.8313 c -1.033782,0.545975 -1.941771,1.425072 -2.645457,2.561279 l -1.071429,1.729978 v 58.448866 58.44887 l 1.071429,1.72998 c 0.703686,1.13621 1.611675,2.01531 2.645457,2.56128 l 1.574032,0.8313 h 82.458058 c 80.34983,0 82.49193,-0.0174 83.78311,-0.67953 z"
       id="path882"
       transform="translate(231.54,375.82)" />
    <path
       style="fill:#a0a0a0;stroke:none;stroke-width:0.357143"
       d="m 76.70615,152.16916 c 0,-21.63 0.07938,-39.32727 0.176407,-39.32727 0.166453,0 41.921033,36.34406 43.686753,38.02585 l 0.82744,0.78812 -21.00581,18.71801 c -11.553195,10.29491 -21.608579,19.25904 -22.345299,19.92029 l -1.339491,1.20227 z"
       id="path884"
       transform="translate(231.54,375.82)" />
    <path
       style="fill:#a0a0a0;stroke:none;stroke-width:0.357143"
       d="m 119.58293,130.43863 -30.158926,-26.34674 30.455016,-0.0913 c 16.75026,-0.0502 44.00294,-0.0502 60.56151,0 l 30.10649,0.0913 -30.02751,26.25 c -16.51514,14.4375 -30.1963,26.29353 -30.40258,26.34673 -0.20629,0.0532 -13.94658,-11.75929 -30.534,-26.24999 z"
       id="path886"
       transform="translate(231.54,375.82)" />
    <path
       style="fill:#a0a0a0;stroke:none;stroke-width:0.357143"
       d="m 200.92536,171.19189 c -12.11694,-10.78 -22.00087,-19.69603 -21.96429,-19.8134 0.0366,-0.11736 9.95044,-8.84272 22.03079,-19.38968 l 21.96429,-19.17628 0.0923,19.47896 c 0.0508,10.71343 0.0508,28.25879 0,38.98969 l -0.0923,19.51071 z"
       id="path888"
       transform="translate(231.54,375.82)" />
    <path
       style="fill:#bababa;stroke:none;stroke-width:0.357143;fill-opacity:1"
       d="m 91.004619,198.43161 c 0.287628,-0.26493 9.442601,-8.40673 20.344391,-18.09287 10.90178,-9.68615 20.15046,-17.9043 20.55261,-18.26255 0.72047,-0.64183 0.82773,-0.56691 7.31698,5.11083 3.6222,3.16922 7.1503,5.99907 7.84025,6.28855 1.67547,0.703 4.64207,0.64336 6.1255,-0.12314 0.6602,-0.34114 4.15717,-3.20718 7.77103,-6.36897 3.61386,-3.16179 6.60389,-5.74872 6.64451,-5.74872 0.1589,0 41.60114,37.02421 41.79704,37.34118 0.13056,0.21125 -22.06093,0.33739 -59.35338,0.33739 -49.99596,0 -59.4779,-0.0774 -59.038931,-0.4817 z"
       id="path890"
       transform="translate(231.54,375.82)" />
    <path
       style="fill:#bababa;stroke:none;stroke-width:0.357143;fill-opacity:1"
       d="m 76.838178,152.5087 c 0.130193,-21.29932 0.305066,-38.79438 0.388607,-38.87793 0.358275,-0.35827 43.840805,37.72822 43.571315,38.16426 -0.17093,0.27657 -41.119651,36.85034 -43.519293,38.86971 -0.664597,0.55928 -0.672889,-0.15872 -0.440629,-38.15604 z"
       id="path892"
       transform="translate(231.54,375.82)" />
    <path
       style="fill:#a0a0a0;stroke:none;stroke-width:0.357143"
       d="m 145.03374,152.2387 c -5.57858,-4.73559 -23.44069,-20.25583 -42.24589,-36.70711 l -12.668304,-11.08256 30.107224,-0.0913 c 16.55898,-0.0502 43.50447,-0.0502 59.87887,0 l 29.77163,0.0913 -11.83622,10.35714 C 175.57594,134.464 151.88181,155.04835 150.9266,155.737 l -0.95812,0.69074 z"
       id="path894"
       transform="translate(231.54,375.82)" />
    <path
       style="fill:#bababa;stroke:none;stroke-width:0.357143;fill-opacity:1"
       d="m 142.06329,149.7541 c -9.01512,-7.78215 -15.40209,-13.34438 -36.42857,-31.72459 l -15.535713,-13.58048 29.882503,-0.0913 c 16.43538,-0.0502 43.39986,-0.0502 59.92107,0 l 30.03856,0.0913 -9.20213,8.03571 c -10.49361,9.1635 -37.99643,33.13871 -43.83697,38.21429 -4.38592,3.81147 -6.717,5.71311 -6.9816,5.69541 -0.0982,-0.007 -3.63393,-2.99472 -7.85715,-6.64034 z"
       id="path896"
       transform="translate(231.54,375.82)" />
    <path
       style="fill:#bababa;stroke:none;stroke-width:0.357143;fill-opacity:1"
       d="m 219.92044,187.87285 c -1.47322,-1.31679 -10.875,-9.71584 -20.89286,-18.66457 -10.01786,-8.94872 -18.52643,-16.62004 -18.90793,-17.04737 -0.69265,-0.77586 -0.69188,-0.77873 0.53571,-2.00328 0.67615,-0.67447 10.39008,-9.23617 21.5865,-19.02601 l 20.35715,-17.79971 0.0924,19.21927 c 0.0508,10.5706 0.0508,27.881 0,38.46755 l -0.0924,19.24828 z"
       id="path898"
       transform="translate(231.54,375.82)" />
    <path
       style="fill:#bababa;stroke:none;stroke-width:0.357143;fill-opacity:1"
       d="M 111.62363,198.57076 91.362533,198.3776 111.7496,180.2526 c 11.21289,-9.96875 20.58567,-18.125 20.8284,-18.125 0.24273,0 3.0789,2.26047 6.3026,5.02328 7.35307,6.3018 8.31931,6.89728 11.18548,6.89347 1.19668,-0.002 2.543,-0.2011 2.99182,-0.44335 0.79506,-0.42912 6.4467,-5.08424 11.8811,-9.78616 l 2.69713,-2.33359 7.66001,6.8016 c 15.02807,13.34398 33.57148,30.01631 33.47371,30.09614 -0.25412,0.20748 -79.15894,0.36325 -97.14622,0.19177 z"
       id="path900"
       transform="translate(231.54,375.82)" />
  </g>
  <metadata
     id="metadata14">
    <rdf:RDF>
      <cc:Work>
        <dc:format>image/svg+xml</dc:format>
        <dc:type
           rdf:resource="http://purl.org/dc/dcmitype/StillImage" />
        <cc:license
           rdf:resource="http://creativecommons.org/publicdomain/zero/1.0/" />
        <dc:publisher>
          <cc:Agent
             rdf:about="http://openclipart.org/">
            <dc:title>Rygle</dc:title>
          </cc:Agent>
        </dc:publisher>
        <dc:title></dc:title>
        <dc:date>2015-03-29</dc:date>
        <dc:description />
        <dc:source />
        <dc:creator>
          <cc:Agent>
            <dc:title>Rygle</dc:title>
          </cc:Agent>
        </dc:creator>
        <dc:subject>
          <rdf:Bag>
            <rdf:li>icon</rdf:li>
            <rdf:li>mail</rdf:li>
            <rdf:li>snail</rdf:li>
            <rdf:li>communication</rdf:li>
            <rdf:li>communicate</rdf:li>
            <rdf:li>address</rdf:li>
            <rdf:li>envelope</rdf:li>
          </rdf:Bag>
        </dc:subject>
        <dc:rights>
          <cc:Agent>
            <dc:title>Public Domain</dc:title>
          </cc:Agent>
        </dc:rights>
      </cc:Work>
      <cc:License
         rdf:about="http://creativecommons.org/publicdomain/zero/1.0/">
        <cc:permits
           rdf:resource="http://creativecommons.org/ns#Reproduction" />
        <cc:permits
           rdf:resource="http://creativecommons.org/ns#Distribution" />
        <cc:permits
           rdf:resource="http://creativecommons.org/ns#DerivativeWorks" />
      </cc:License>
    </rdf:RDF>
  </metadata>
</svg>
